<?xml version="1.0" encoding="UTF-8"?>
<!DOCTYPE svg PUBLIC "-//W3C//DTD SVG 1.1//EN" "http://www.w3.org/Graphics/SVG/1.1/DTD/svg11.dtd">
<svg xmlns="http://www.w3.org/2000/svg" version="1.1" width="2320px" height="2315px" style="shape-rendering:geometricPrecision; text-rendering:geometricPrecision; image-rendering:optimizeQuality; fill-rule:evenodd; clip-rule:evenodd" xmlns:xlink="http://www.w3.org/1999/xlink">
<g><path style="opacity:0.999" fill="#6ab950" d="M 1159.5,43.5 C 1208.97,41.2914 1255.3,52.1248 1298.5,76C 1312.69,84.5918 1326.35,93.9251 1339.5,104C 1469.46,215.626 1599.13,327.626 1728.5,440C 1868.35,559.43 2008.02,679.097 2147.5,799C 2165.17,813.333 2182.83,827.667 2200.5,842C 2219.91,858.684 2235.08,878.517 2246,901.5C 2251.38,914.701 2255.05,928.367 2257,942.5C 2258.21,963.475 2258.87,984.475 2259,1005.5C 2260.5,1292.5 2260.83,1579.5 2260,1866.5C 2260.01,1925.54 2258.67,1984.54 2256,2043.5C 2243.01,2106.48 2208.51,2153.65 2152.5,2185C 2113.49,2205.84 2071.82,2216.84 2027.5,2218C 2009.01,2218.98 1990.51,2219.48 1972,2219.5C 1475.5,2218.35 979.001,2218.18 482.5,2219C 431.506,2221.4 380.506,2221.73 329.5,2220C 290.464,2218.53 252.464,2211.53 215.5,2199C 162.792,2179.29 123.625,2144.45 98,2094.5C 92.29,2075.91 88.6233,2056.91 87,2037.5C 83.7821,2005.23 81.4487,1972.9 80,1940.5C 75.3204,1820.55 73.4871,1700.55 74.5,1580.5C 75.0719,1385.16 76.9052,1189.82 80,994.5C 80.2688,972.338 82.2688,950.338 86,928.5C 90.6811,905.141 100.681,884.474 116,866.5C 126.529,855.637 137.363,845.137 148.5,835C 172.833,814.667 197.167,794.333 221.5,774C 327.693,679.463 435.359,586.797 544.5,496C 663.167,393 781.833,290 900.5,187C 936.131,156.524 972.131,126.524 1008.5,97C 1037.46,74.192 1070.13,58.8587 1106.5,51C 1124.15,47.3116 1141.82,44.8116 1159.5,43.5 Z"/></g>
<g><path style="opacity:1" fill="#fdfdfd" d="M 1471.5,828.5 C 1549.17,828.5 1626.83,828.5 1704.5,828.5C 1704.5,906.167 1704.5,983.833 1704.5,1061.5C 1626.83,1061.5 1549.17,1061.5 1471.5,1061.5C 1471.5,983.833 1471.5,906.167 1471.5,828.5 Z"/></g>
<g><path style="opacity:1" fill="#fdfdfd" d="M 1772.5,828.5 C 1850.17,828.5 1927.83,828.5 2005.5,828.5C 2005.5,906.167 2005.5,983.833 2005.5,1061.5C 1927.83,1061.5 1850.17,1061.5 1772.5,1061.5C 1772.5,983.833 1772.5,906.167 1772.5,828.5 Z"/></g>
<g><path style="opacity:1" fill="#b3d69f" d="M 1158.5,899.5 C 1158.32,897.064 1158.98,894.897 1160.5,893C 1159.5,892 1158.5,891 1157.5,890C 1147.82,889.421 1138.15,889.588 1128.5,890.5C 1131.08,889.776 1133.75,888.943 1136.5,888C 1147.83,886.6 1159.17,885.6 1170.5,885C 1169.4,888.792 1168.4,892.625 1167.5,896.5C 1164.18,896.664 1161.18,897.664 1158.5,899.5 Z"/></g>
<g><path style="opacity:1" fill="#fdfdfd" d="M 1158.5,899.5 C 1156.09,907.652 1152.59,915.319 1148,922.5C 1137.91,937.01 1127.58,951.343 1117,965.5C 1112.5,971.835 1108.5,978.502 1105,985.5C 1103.74,994.769 1104.74,1003.77 1108,1012.5C 1117.3,1033.11 1127.14,1053.44 1137.5,1073.5C 1143.39,1075.32 1149.39,1076.82 1155.5,1078C 1182.42,1081.74 1209.42,1082.4 1236.5,1080C 1254.43,1049.42 1273.93,1019.92 1295,991.5C 1298.35,987.984 1301.85,984.651 1305.5,981.5C 1314.84,997.18 1320.01,1014.18 1321,1032.5C 1323.98,1083.9 1307.48,1127.74 1271.5,1164C 1241.54,1189.3 1206.87,1203.64 1167.5,1207C 1158.26,1207.18 1149.09,1207.68 1140,1208.5C 1095.3,1280.19 1048.63,1350.52 1000,1419.5C 996.352,1424.32 992.185,1428.65 987.5,1432.5C 972.71,1423.21 961.21,1410.88 953,1395.5C 947.807,1384.92 942.807,1374.25 938,1363.5C 928.887,1345.39 915.387,1331.55 897.5,1322C 894.808,1319.44 892.475,1316.61 890.5,1313.5C 897.641,1298.55 905.807,1284.21 915,1270.5C 941.262,1231.64 968.262,1193.31 996,1155.5C 1003.19,1146.13 1008.52,1135.8 1012,1124.5C 1012.67,1120.5 1012.67,1116.5 1012,1112.5C 985.648,1040.91 999.814,978.74 1054.5,926C 1075.63,906.936 1100.3,895.103 1128.5,890.5C 1138.15,889.588 1147.82,889.421 1157.5,890C 1158.5,891 1159.5,892 1160.5,893C 1158.98,894.897 1158.32,897.064 1158.5,899.5 Z"/></g>
<g><path style="opacity:1" fill="#fdfdfd" d="M 1471.5,1109.5 C 1549.17,1109.5 1626.83,1109.5 1704.5,1109.5C 1704.5,1187.17 1704.5,1264.83 1704.5,1342.5C 1626.83,1342.5 1549.17,1342.5 1471.5,1342.5C 1471.5,1264.83 1471.5,1187.17 1471.5,1109.5 Z"/></g>
<g><path style="opacity:1" fill="#fdfdfd" d="M 1772.5,1109.5 C 1850.17,1109.5 1927.83,1109.5 2005.5,1109.5C 2005.5,1187.17 2005.5,1264.83 2005.5,1342.5C 1927.83,1342.5 1850.17,1342.5 1772.5,1342.5C 1772.5,1264.83 1772.5,1187.17 1772.5,1109.5 Z"/></g>
<g><path style="opacity:1" fill="#fdfdfd" d="M 633.5,1259.5 C 655.421,1259.3 677.087,1261.46 698.5,1266C 762.694,1283.18 825.028,1305.51 885.5,1333C 896.938,1338.46 907.438,1345.3 917,1353.5C 920.952,1357.79 923.619,1362.79 925,1368.5C 924.872,1384.16 924.872,1399.83 925,1415.5C 925.872,1425.03 927.706,1434.36 930.5,1443.5C 927.746,1448.01 925.246,1452.67 923,1457.5C 919.647,1470.91 915.981,1484.24 912,1497.5C 910.833,1499.83 909.667,1502.17 908.5,1504.5C 895.513,1505.33 882.513,1505.83 869.5,1506C 860.604,1507.89 854.437,1513.06 851,1521.5C 844.932,1538.67 841.099,1556.34 839.5,1574.5C 839.725,1583.74 842.558,1592.07 848,1599.5C 854.833,1608.33 861.667,1617.17 868.5,1626C 875.108,1627.22 881.775,1628.06 888.5,1628.5C 890.641,1628.39 892.475,1627.72 894,1626.5C 907.332,1566.51 920.666,1506.51 934,1446.5C 937.773,1438.62 941.773,1430.95 946,1423.5C 987.779,1437.71 1013.45,1466.38 1023,1509.5C 1026.44,1546.69 1010.6,1571.19 975.5,1583C 961.086,1586.72 946.419,1588.38 931.5,1588C 940.364,1598.9 948.864,1610.06 957,1621.5C 968.494,1639.64 972.828,1659.31 970,1680.5C 964.917,1699.92 953.084,1713.42 934.5,1721C 904.657,1730.13 874.99,1729.46 845.5,1719C 801.939,1701.89 758.606,1684.22 715.5,1666C 698.811,1659.3 684.311,1649.46 672,1636.5C 658.874,1619.32 658.207,1601.65 670,1583.5C 675.585,1574.66 680.919,1565.66 686,1556.5C 698.776,1540.18 715.61,1532.84 736.5,1534.5C 741.5,1534.83 746.5,1535.17 751.5,1535.5C 764.333,1559.83 777.167,1584.17 790,1608.5C 797.967,1622.47 808.134,1634.64 820.5,1645C 842.338,1658.57 863.338,1657.24 883.5,1641C 872.621,1638.92 861.621,1637.92 850.5,1638C 839.47,1635.48 829.47,1630.82 820.5,1624C 802.016,1606.55 787.849,1586.05 778,1562.5C 769.331,1543.16 762.664,1523.16 758,1502.5C 752.978,1481.14 756.644,1461.48 769,1443.5C 777.411,1431.75 786.577,1420.59 796.5,1410C 785.75,1412.13 776.583,1417.3 769,1425.5C 764.667,1432.83 760.333,1440.17 756,1447.5C 744.643,1460.14 734.31,1459.47 725,1445.5C 722.469,1438.91 720.136,1432.24 718,1425.5C 716,1422.17 714,1418.83 712,1415.5C 713.993,1430.78 715.826,1446.11 717.5,1461.5C 707.708,1460.98 700.041,1456.81 694.5,1449C 688.671,1445.29 682.337,1443.29 675.5,1443C 677.643,1448.29 680.309,1453.29 683.5,1458C 688.628,1460.09 693.962,1461.43 699.5,1462C 715.328,1477.16 718.494,1494.66 709,1514.5C 699.141,1531.55 687.808,1547.55 675,1562.5C 670.333,1569.83 665.667,1577.17 661,1584.5C 658.208,1589.91 657.708,1595.58 659.5,1601.5C 659.449,1605.82 658.282,1609.82 656,1613.5C 645.319,1624.09 633.152,1632.59 619.5,1639C 611.167,1646 602.833,1653 594.5,1660C 583.168,1665.83 571.168,1669.5 558.5,1671C 533.134,1671.82 507.801,1671.32 482.5,1669.5C 476.833,1669.67 471.167,1669.83 465.5,1670C 462.876,1670.58 462.209,1671.91 463.5,1674C 470.266,1677.26 477.266,1679.92 484.5,1682C 517.443,1686.41 550.443,1690.24 583.5,1693.5C 584.594,1704.84 584.594,1716.17 583.5,1727.5C 579.356,1730.48 575.356,1733.64 571.5,1737C 568.754,1738.75 565.754,1739.75 562.5,1740C 553.754,1753.56 546.92,1768.06 542,1783.5C 539.401,1796.37 536.067,1809.03 532,1821.5C 522.849,1838.31 512.515,1854.31 501,1869.5C 497.326,1874.84 494.16,1880.51 491.5,1886.5C 481.955,1887.5 472.622,1886.33 463.5,1883C 440.028,1875.4 416.695,1867.4 393.5,1859C 357.243,1848.23 320.243,1841.23 282.5,1838C 277.427,1836.59 273.927,1833.43 272,1828.5C 270.592,1824.94 269.592,1821.28 269,1817.5C 267.5,1691.5 266.333,1565.5 265.5,1439.5C 288.165,1440.2 310.831,1440.37 333.5,1440C 340.357,1438.62 347.023,1436.62 353.5,1434C 366.494,1427.17 379.161,1419.84 391.5,1412C 457.82,1366.17 524.487,1320.84 591.5,1276C 597.913,1271.93 604.579,1268.27 611.5,1265C 618.812,1262.51 626.145,1260.67 633.5,1259.5 Z"/></g>
<g><path style="opacity:1" fill="#f6f6f7" d="M 93.5,1388.5 C 142.833,1388.5 192.167,1388.5 241.5,1388.5C 241.5,1551.5 241.5,1714.5 241.5,1877.5C 192.165,1877.33 142.832,1876.99 93.5,1876.5C 93.5,1713.83 93.5,1551.17 93.5,1388.5 Z"/></g>
<g><path style="opacity:1" fill="#fdfdfd" d="M 625.5,1642.5 C 630.887,1643.19 635.887,1645.02 640.5,1648C 655.351,1658.26 671.018,1667.26 687.5,1675C 720.248,1688.47 752.915,1702.14 785.5,1716C 804.983,1722.27 824.316,1728.94 843.5,1736C 854.722,1740.57 864.222,1747.41 872,1756.5C 878.881,1769.26 879.215,1782.26 873,1795.5C 866.211,1810.62 856.711,1823.79 844.5,1835C 826.14,1849.12 805.807,1852.78 783.5,1846C 770.755,1841.64 758.421,1836.31 746.5,1830C 717.661,1813.75 688.661,1797.75 659.5,1782C 640.262,1771.62 623.095,1758.45 608,1742.5C 603.363,1736.89 600.029,1730.56 598,1723.5C 597.19,1712 596.357,1700.5 595.5,1689C 598.349,1668.78 608.349,1653.28 625.5,1642.5 Z"/></g>
<g><path style="opacity:1" fill="#fdfdfd" d="M 570.5,1750.5 C 575.179,1750.33 579.845,1750.5 584.5,1751C 598.413,1764.59 613.746,1776.25 630.5,1786C 662.36,1803.76 694.693,1820.76 727.5,1837C 742.713,1844.55 755.88,1854.72 767,1867.5C 773.43,1876.79 774.097,1886.46 769,1896.5C 740.39,1936.62 703.223,1947.12 657.5,1928C 619.626,1909.8 587.459,1884.3 561,1851.5C 545.666,1829.94 543.332,1806.94 554,1782.5C 559.258,1771.65 564.758,1760.98 570.5,1750.5 Z"/></g>
<g><path style="opacity:1" fill="#fdfdfd" d="M 541.5,1848.5 C 563.674,1870.17 586.341,1891.34 609.5,1912C 623.768,1923.44 638.435,1934.28 653.5,1944.5C 626.253,1995.36 595.753,2044.02 562,2090.5C 549.934,2107.23 536.434,2122.73 521.5,2137C 490.566,2152.7 460.899,2150.7 432.5,2131C 403.054,2104.24 397.554,2073.08 416,2037.5C 420.828,2027.84 426.161,2018.51 432,2009.5C 466.333,1957.83 500.667,1906.17 535,1854.5C 537.063,1852.27 539.229,1850.27 541.5,1848.5 Z"/></g>
<g><path style="opacity:1" fill="#6ab951" d="M 475.5,2056.5 C 495.325,2056.15 505.658,2065.99 506.5,2086C 503.917,2107.23 491.917,2116.57 470.5,2114C 451.336,2105.85 445.169,2092.01 452,2072.5C 458.841,2065.51 466.675,2060.18 475.5,2056.5 Z"/></g>
</svg>
